<mxfile host="65bd71144e">
    <diagram id="YrSzpa-H51OLec4P3ytI" name="Page-1">
        <mxGraphModel dx="1085" dy="643" grid="1" gridSize="10" guides="1" tooltips="1" connect="1" arrows="1" fold="1" page="1" pageScale="1" pageWidth="850" pageHeight="1100" background="#FFFFFF" math="0" shadow="0">
            <root>
                <mxCell id="0"/>
                <mxCell id="1" parent="0"/>
                <mxCell id="10" style="edgeStyle=none;html=1;entryX=0;entryY=0.5;entryDx=0;entryDy=0;startArrow=none;endArrow=open;endFill=0;strokeColor=#000000;" parent="1" source="21" target="9" edge="1">
                    <mxGeometry relative="1" as="geometry">
                        <mxPoint x="190" y="117.76" as="sourcePoint"/>
                    </mxGeometry>
                </mxCell>
                <mxCell id="12" value="/gazebo/scan" style="edgeLabel;html=1;align=center;verticalAlign=middle;resizable=0;points=[];fontColor=#000000;labelBackgroundColor=#FFFFFF;" parent="10" vertex="1" connectable="0">
                    <mxGeometry x="0.32" y="-4" relative="1" as="geometry">
                        <mxPoint x="-7" y="-25" as="offset"/>
                    </mxGeometry>
                </mxCell>
                <mxCell id="3" value="" style="rounded=0;whiteSpace=wrap;html=1;direction=south;fillColor=#f5f5f5;fontColor=#333333;strokeColor=#000000;" parent="1" vertex="1">
                    <mxGeometry x="173" y="43.75" width="102" height="446.25" as="geometry"/>
                </mxCell>
                <mxCell id="5" value="" style="rounded=0;whiteSpace=wrap;html=1;direction=south;fillColor=#FFFFFF;fontColor=#333333;strokeColor=#000000;" parent="1" vertex="1">
                    <mxGeometry x="360" y="40" width="130" height="450" as="geometry"/>
                </mxCell>
                <mxCell id="9" value="" style="whiteSpace=wrap;html=1;aspect=fixed;fillColor=#000000;" parent="1" vertex="1">
                    <mxGeometry x="350" y="113.75" width="15" height="15" as="geometry"/>
                </mxCell>
                <mxCell id="18" style="edgeStyle=none;html=1;entryX=0;entryY=0.5;entryDx=0;entryDy=0;startArrow=none;endArrow=open;endFill=0;strokeColor=#000000;exitX=1;exitY=0.5;exitDx=0;exitDy=0;" parent="1" source="24" target="20" edge="1">
                    <mxGeometry relative="1" as="geometry">
                        <mxPoint x="195" y="185.26" as="sourcePoint"/>
                    </mxGeometry>
                </mxCell>
                <mxCell id="19" value="/gazebo/position" style="edgeLabel;html=1;align=center;verticalAlign=middle;resizable=0;points=[];spacingBottom=8;fontColor=#000000;labelBackgroundColor=#FFFFFF;" parent="18" vertex="1" connectable="0">
                    <mxGeometry x="0.32" y="-4" relative="1" as="geometry">
                        <mxPoint x="-10" y="-30" as="offset"/>
                    </mxGeometry>
                </mxCell>
                <mxCell id="20" value="" style="whiteSpace=wrap;html=1;aspect=fixed;fillColor=#000000;" parent="1" vertex="1">
                    <mxGeometry x="350" y="181.25" width="15" height="15" as="geometry"/>
                </mxCell>
                <mxCell id="21" value="" style="whiteSpace=wrap;html=1;aspect=fixed;fillColor=#000000;" parent="1" vertex="1">
                    <mxGeometry x="267" y="113.75" width="15" height="15" as="geometry"/>
                </mxCell>
                <mxCell id="24" value="" style="whiteSpace=wrap;html=1;aspect=fixed;fillColor=#000000;" parent="1" vertex="1">
                    <mxGeometry x="267" y="181.25" width="15" height="15" as="geometry"/>
                </mxCell>
                <mxCell id="27" style="edgeStyle=none;html=1;entryX=0;entryY=0.5;entryDx=0;entryDy=0;startArrow=none;endArrow=open;endFill=0;strokeColor=#000000;exitX=1;exitY=0.5;exitDx=0;exitDy=0;" parent="1" source="140" target="253" edge="1">
                    <mxGeometry relative="1" as="geometry">
                        <mxPoint x="520" y="211.63" as="sourcePoint"/>
                        <mxPoint x="615" y="211.63" as="targetPoint"/>
                    </mxGeometry>
                </mxCell>
                <mxCell id="28" value="/processor/state" style="edgeLabel;html=1;align=center;verticalAlign=middle;resizable=0;points=[];fontColor=#000000;labelBackgroundColor=#FFFFFF;" parent="27" vertex="1" connectable="0">
                    <mxGeometry x="0.32" y="-4" relative="1" as="geometry">
                        <mxPoint x="-26" y="-14" as="offset"/>
                    </mxGeometry>
                </mxCell>
                <mxCell id="30" value="" style="whiteSpace=wrap;html=1;aspect=fixed;fillColor=#000000;" parent="1" vertex="1">
                    <mxGeometry x="480" y="423.75" width="15" height="15" as="geometry"/>
                </mxCell>
                <mxCell id="31" style="edgeStyle=none;html=1;entryX=0;entryY=0.5;entryDx=0;entryDy=0;startArrow=none;endArrow=open;endFill=0;strokeColor=#000000;exitX=1;exitY=0.5;exitDx=0;exitDy=0;" parent="1" source="138" target="254" edge="1">
                    <mxGeometry relative="1" as="geometry">
                        <mxPoint x="535" y="255" as="sourcePoint"/>
                    </mxGeometry>
                </mxCell>
                <mxCell id="32" value="/processor/terminate" style="edgeLabel;html=1;align=center;verticalAlign=middle;resizable=0;points=[];fontColor=#000000;labelBackgroundColor=#FFFFFF;" parent="31" vertex="1" connectable="0">
                    <mxGeometry x="0.32" y="-4" relative="1" as="geometry">
                        <mxPoint x="-26" y="-14" as="offset"/>
                    </mxGeometry>
                </mxCell>
                <mxCell id="34" value="" style="whiteSpace=wrap;html=1;aspect=fixed;fillColor=#000000;" parent="1" vertex="1">
                    <mxGeometry x="480" y="453.75" width="15" height="15" as="geometry"/>
                </mxCell>
                <mxCell id="35" style="edgeStyle=none;html=1;entryX=0;entryY=0.5;entryDx=0;entryDy=0;startArrow=none;endArrow=open;endFill=0;strokeColor=#000000;exitX=0;exitY=0.5;exitDx=0;exitDy=0;" parent="1" source="38" target="255" edge="1">
                    <mxGeometry relative="1" as="geometry">
                        <mxPoint x="525" y="253.75" as="sourcePoint"/>
                    </mxGeometry>
                </mxCell>
                <mxCell id="36" value="/processor/reward" style="edgeLabel;html=1;align=center;verticalAlign=middle;resizable=0;points=[];fontColor=#000000;labelBackgroundColor=#FFFFFF;" parent="35" vertex="1" connectable="0">
                    <mxGeometry x="0.32" y="-4" relative="1" as="geometry">
                        <mxPoint x="-26" y="-14" as="offset"/>
                    </mxGeometry>
                </mxCell>
                <mxCell id="38" value="" style="whiteSpace=wrap;html=1;aspect=fixed;fillColor=#000000;" parent="1" vertex="1">
                    <mxGeometry x="480" y="298.44" width="15" height="15" as="geometry"/>
                </mxCell>
                <mxCell id="79" value="&lt;font size=&quot;1&quot;&gt;&lt;b&gt;&lt;i style=&quot;font-size: 28px&quot;&gt;Preprocessor&lt;/i&gt;&lt;/b&gt;&lt;/font&gt;" style="text;html=1;resizable=0;autosize=1;align=center;verticalAlign=middle;points=[];fillColor=none;strokeColor=none;rounded=0;labelBackgroundColor=#FFFFFF;fontSize=9;fontColor=#000000;rotation=-90;" parent="1" vertex="1">
                    <mxGeometry x="325" y="264.69" width="200" height="20" as="geometry"/>
                </mxCell>
                <mxCell id="115" style="edgeStyle=none;html=1;entryX=0;entryY=0.5;entryDx=0;entryDy=0;startArrow=open;endArrow=none;endFill=0;strokeColor=#000000;startFill=0;" parent="1" source="118" target="117" edge="1">
                    <mxGeometry relative="1" as="geometry">
                        <mxPoint x="270" y="457.76" as="sourcePoint"/>
                    </mxGeometry>
                </mxCell>
                <mxCell id="116" value="/processor/step" style="edgeLabel;html=1;align=center;verticalAlign=middle;resizable=0;points=[];fontColor=#000000;labelBackgroundColor=#FFFFFF;" parent="115" vertex="1" connectable="0">
                    <mxGeometry x="0.32" y="-4" relative="1" as="geometry">
                        <mxPoint x="233" y="-13" as="offset"/>
                    </mxGeometry>
                </mxCell>
                <mxCell id="117" value="" style="whiteSpace=wrap;html=1;aspect=fixed;fillColor=#000000;" parent="1" vertex="1">
                    <mxGeometry x="350" y="453.75" width="15" height="15" as="geometry"/>
                </mxCell>
                <mxCell id="118" value="" style="whiteSpace=wrap;html=1;aspect=fixed;fillColor=#000000;" parent="1" vertex="1">
                    <mxGeometry x="267" y="453.75" width="15" height="15" as="geometry"/>
                </mxCell>
                <mxCell id="121" value="" style="whiteSpace=wrap;html=1;aspect=fixed;fillColor=#000000;" parent="1" vertex="1">
                    <mxGeometry x="350" y="422.13" width="15" height="15" as="geometry"/>
                </mxCell>
                <mxCell id="122" value="" style="whiteSpace=wrap;html=1;aspect=fixed;fillColor=#000000;" parent="1" vertex="1">
                    <mxGeometry x="267" y="423.75" width="15" height="15" as="geometry"/>
                </mxCell>
                <mxCell id="133" value="&lt;b style=&quot;color: rgb(0 , 0 , 0) ; font-family: &amp;#34;helvetica&amp;#34; ; font-size: 42px ; font-style: normal ; letter-spacing: normal ; text-align: center ; text-indent: 0px ; text-transform: none ; word-spacing: 0px&quot;&gt;&lt;font style=&quot;font-size: 42px&quot;&gt;Environment&lt;/font&gt;&lt;/b&gt;" style="text;whiteSpace=wrap;html=1;fontSize=42;rotation=-90;" parent="1" vertex="1">
                    <mxGeometry x="80" y="229.01" width="280" height="70" as="geometry"/>
                </mxCell>
                <mxCell id="138" value="" style="whiteSpace=wrap;html=1;aspect=fixed;fillColor=#000000;" parent="1" vertex="1">
                    <mxGeometry x="480" y="247.26" width="15" height="15" as="geometry"/>
                </mxCell>
                <mxCell id="140" value="" style="whiteSpace=wrap;html=1;aspect=fixed;fillColor=#000000;" parent="1" vertex="1">
                    <mxGeometry x="480" y="205.63" width="15" height="15" as="geometry"/>
                </mxCell>
                <mxCell id="148" style="edgeStyle=orthogonalEdgeStyle;rounded=0;jumpSize=15;html=1;exitX=1;exitY=0.385;exitDx=0;exitDy=0;entryX=0;entryY=0.25;entryDx=0;entryDy=0;labelBackgroundColor=#FFFFFF;fontSize=17;fontColor=#3333FF;startArrow=none;startFill=0;endArrow=open;endFill=0;strokeColor=#000000;exitPerimeter=0;" parent="1" source="47" edge="1">
                    <mxGeometry relative="1" as="geometry">
                        <mxPoint x="510" y="382.5" as="sourcePoint"/>
                        <mxPoint x="820" y="120.625" as="targetPoint"/>
                    </mxGeometry>
                </mxCell>
                <mxCell id="164" style="edgeStyle=orthogonalEdgeStyle;rounded=0;jumpSize=15;html=1;labelBackgroundColor=#FFFFFF;fontSize=13;fontColor=#3333FF;startArrow=none;startFill=0;endArrow=open;endFill=0;strokeColor=#000000;exitX=0;exitY=0.5;exitDx=0;exitDy=0;" parent="1" source="256" edge="1" target="30">
                    <mxGeometry relative="1" as="geometry">
                        <mxPoint x="1130" y="440" as="sourcePoint"/>
                        <mxPoint x="300" y="430" as="targetPoint"/>
                        <Array as="points">
                            <mxPoint x="615" y="431"/>
                            <mxPoint x="500" y="431"/>
                        </Array>
                    </mxGeometry>
                </mxCell>
                <mxCell id="165" style="edgeStyle=orthogonalEdgeStyle;rounded=0;jumpSize=15;html=1;exitX=0;exitY=0.5;exitDx=0;exitDy=0;labelBackgroundColor=#FFFFFF;fontSize=13;fontColor=#3333FF;startArrow=none;startFill=0;endArrow=open;endFill=0;strokeColor=#000000;entryX=1;entryY=0.5;entryDx=0;entryDy=0;" parent="1" source="257" edge="1" target="34">
                    <mxGeometry relative="1" as="geometry">
                        <mxPoint x="940" y="488.75" as="sourcePoint"/>
                        <mxPoint x="300" y="470" as="targetPoint"/>
                        <Array as="points"/>
                    </mxGeometry>
                </mxCell>
                <mxCell id="193" value="&lt;font style=&quot;font-size: 7px&quot;&gt;goalPosition:&amp;nbsp;ℚ^{2}&amp;nbsp;&amp;nbsp;&lt;/font&gt;" style="edgeStyle=orthogonalEdgeStyle;html=1;labelBackgroundColor=#FFFFFF;fontSize=9;fontColor=#000000;startArrow=none;startFill=0;endArrow=open;endFill=0;strokeColor=#A50040;rounded=0;spacing=3;spacingTop=-7;entryX=-0.006;entryY=0.651;entryDx=0;entryDy=0;exitX=1;exitY=0.5;exitDx=0;exitDy=0;entryPerimeter=0;fillColor=#d80073;" parent="1" source="160" edge="1">
                    <mxGeometry x="0.0401" relative="1" as="geometry">
                        <mxPoint x="569.46" y="289.53" as="targetPoint"/>
                        <Array as="points">
                            <mxPoint x="539" y="315"/>
                            <mxPoint x="539" y="290"/>
                        </Array>
                        <mxPoint as="offset"/>
                        <mxPoint x="310" y="208.75" as="sourcePoint"/>
                    </mxGeometry>
                </mxCell>
                <mxCell id="198" value="&lt;font style=&quot;font-size: 7px&quot;&gt;isCrash: B&amp;nbsp;&lt;/font&gt;" style="edgeStyle=orthogonalEdgeStyle;html=1;labelBackgroundColor=#FFFFFF;fontSize=9;fontColor=#000000;startArrow=none;startFill=0;endArrow=open;endFill=0;strokeColor=#2D7600;rounded=0;spacing=3;spacingTop=-7;fillColor=#60a917;exitX=0.5;exitY=1;exitDx=0;exitDy=0;entryX=-0.016;entryY=0.105;entryDx=0;entryDy=0;entryPerimeter=0;" parent="1" source="99" edge="1">
                    <mxGeometry x="-0.1734" y="10" relative="1" as="geometry">
                        <mxPoint x="808.56" y="268.79999999999995" as="targetPoint"/>
                        <Array as="points">
                            <mxPoint x="835" y="240"/>
                            <mxPoint x="790" y="240"/>
                            <mxPoint x="790" y="269"/>
                        </Array>
                        <mxPoint as="offset"/>
                        <mxPoint x="670" y="292" as="sourcePoint"/>
                    </mxGeometry>
                </mxCell>
                <mxCell id="201" style="edgeStyle=orthogonalEdgeStyle;rounded=0;jumpSize=15;html=1;entryX=0.75;entryY=0;entryDx=0;entryDy=0;labelBackgroundColor=#FFFFFF;fontSize=17;fontColor=#3333FF;startArrow=none;startFill=0;endArrow=open;endFill=0;strokeColor=#A50040;fillColor=#d80073;" parent="1" source="47" edge="1">
                    <mxGeometry relative="1" as="geometry">
                        <mxPoint x="710" y="158" as="sourcePoint"/>
                        <mxPoint x="857.5" y="187.5" as="targetPoint"/>
                        <Array as="points">
                            <mxPoint x="710" y="170"/>
                            <mxPoint x="858" y="170"/>
                        </Array>
                    </mxGeometry>
                </mxCell>
                <mxCell id="212" style="edgeStyle=none;html=1;entryX=0;entryY=0.5;entryDx=0;entryDy=0;startArrow=open;endArrow=none;endFill=0;strokeColor=#000000;startFill=0;exitX=1;exitY=0.5;exitDx=0;exitDy=0;" parent="1" source="122" edge="1">
                    <mxGeometry relative="1" as="geometry">
                        <mxPoint x="282" y="423.7499999999999" as="sourcePoint"/>
                        <mxPoint x="350" y="430.88" as="targetPoint"/>
                    </mxGeometry>
                </mxCell>
                <mxCell id="213" value="/processor/reset" style="edgeLabel;html=1;align=center;verticalAlign=middle;resizable=0;points=[];fontColor=#000000;labelBackgroundColor=#FFFFFF;" parent="212" vertex="1" connectable="0">
                    <mxGeometry x="0.32" y="-4" relative="1" as="geometry">
                        <mxPoint x="233" y="-13" as="offset"/>
                    </mxGeometry>
                </mxCell>
                <mxCell id="234" value="" style="rounded=0;whiteSpace=wrap;html=1;direction=south;fillColor=#f5f5f5;fontColor=#333333;strokeColor=#000000;" parent="1" vertex="1">
                    <mxGeometry x="630" y="43.75" width="470" height="446.25" as="geometry"/>
                </mxCell>
                <mxCell id="235" value="&lt;b style=&quot;color: rgb(0 , 0 , 0) ; font-family: &amp;#34;helvetica&amp;#34; ; font-size: 42px ; font-style: normal ; letter-spacing: normal ; text-align: center ; text-indent: 0px ; text-transform: none ; word-spacing: 0px&quot;&gt;&lt;font style=&quot;font-size: 26px&quot;&gt;Master&lt;/font&gt;&lt;/b&gt;" style="text;whiteSpace=wrap;html=1;fontSize=42;rotation=0;" parent="1" vertex="1">
                    <mxGeometry x="640" y="23.75" width="95" height="76.25" as="geometry"/>
                </mxCell>
                <mxCell id="253" value="" style="whiteSpace=wrap;html=1;aspect=fixed;fillColor=#000000;" parent="1" vertex="1">
                    <mxGeometry x="625" y="206.63" width="15" height="15" as="geometry"/>
                </mxCell>
                <mxCell id="254" value="" style="whiteSpace=wrap;html=1;aspect=fixed;fillColor=#000000;" parent="1" vertex="1">
                    <mxGeometry x="625" y="247.5" width="15" height="15" as="geometry"/>
                </mxCell>
                <mxCell id="255" value="" style="whiteSpace=wrap;html=1;aspect=fixed;fillColor=#000000;" parent="1" vertex="1">
                    <mxGeometry x="625" y="297.5" width="15" height="15" as="geometry"/>
                </mxCell>
                <mxCell id="319" value="" style="edgeStyle=none;html=1;fontSize=11;fontColor=#000000;" edge="1" parent="1" source="256" target="234">
                    <mxGeometry relative="1" as="geometry"/>
                </mxCell>
                <mxCell id="256" value="" style="whiteSpace=wrap;html=1;aspect=fixed;fillColor=#000000;" parent="1" vertex="1">
                    <mxGeometry x="625" y="423.75" width="15" height="15" as="geometry"/>
                </mxCell>
                <mxCell id="257" value="" style="whiteSpace=wrap;html=1;aspect=fixed;fillColor=#000000;" parent="1" vertex="1">
                    <mxGeometry x="625" y="453.75" width="15" height="15" as="geometry"/>
                </mxCell>
                <mxCell id="258" value="" style="rounded=0;whiteSpace=wrap;html=1;direction=south;fillColor=#F5F5F5;fontColor=#333333;strokeColor=#000000;spacing=2;spacingRight=0;spacingLeft=0;spacingTop=0;" vertex="1" parent="1">
                    <mxGeometry x="683" y="77.5" width="347" height="302.5" as="geometry"/>
                </mxCell>
                <mxCell id="259" value="" style="rounded=0;whiteSpace=wrap;html=1;direction=south;fillColor=#f5f5f5;fontColor=#333333;strokeColor=#000000;" vertex="1" parent="1">
                    <mxGeometry x="725" y="170.63" width="30" height="85" as="geometry"/>
                </mxCell>
                <mxCell id="264" value="" style="whiteSpace=wrap;html=1;aspect=fixed;fillColor=#FFFFFF;spacingRight=0;spacingLeft=0;strokeColor=#000000;" vertex="1" parent="1">
                    <mxGeometry x="675" y="206.63" width="15" height="15" as="geometry"/>
                </mxCell>
                <mxCell id="265" value="&lt;span style=&quot;color: rgb(0 , 0 , 0) ; font-family: &amp;#34;helvetica&amp;#34; ; font-style: normal ; letter-spacing: normal ; text-align: center ; text-indent: 0px ; text-transform: none ; word-spacing: 0px&quot;&gt;&lt;font style=&quot;font-size: 13px&quot;&gt;&lt;b&gt;TurtleBotQNet&lt;/b&gt;&lt;/font&gt;&lt;/span&gt;" style="text;whiteSpace=wrap;html=1;fontSize=42;rotation=0;" vertex="1" parent="1">
                    <mxGeometry x="690" y="50" width="95" height="50" as="geometry"/>
                </mxCell>
                <mxCell id="266" value="" style="ellipse;whiteSpace=wrap;html=1;aspect=fixed;fontSize=13;strokeColor=#000000;fillColor=#FFFFFF;" vertex="1" parent="1">
                    <mxGeometry x="730" y="175.63" width="20" height="20" as="geometry"/>
                </mxCell>
                <mxCell id="268" value="" style="ellipse;whiteSpace=wrap;html=1;aspect=fixed;fontSize=13;strokeColor=#000000;fillColor=#FFFFFF;" vertex="1" parent="1">
                    <mxGeometry x="730" y="201.63" width="20" height="20" as="geometry"/>
                </mxCell>
                <mxCell id="269" value="" style="ellipse;whiteSpace=wrap;html=1;aspect=fixed;fontSize=13;strokeColor=#000000;fillColor=#FFFFFF;" vertex="1" parent="1">
                    <mxGeometry x="730" y="229.63" width="20" height="20" as="geometry"/>
                </mxCell>
                <mxCell id="271" value="" style="rounded=0;whiteSpace=wrap;html=1;direction=south;fillColor=#f5f5f5;fontColor=#333333;strokeColor=#000000;" vertex="1" parent="1">
                    <mxGeometry x="785" y="131.26" width="30" height="163.75" as="geometry"/>
                </mxCell>
                <mxCell id="272" value="" style="ellipse;whiteSpace=wrap;html=1;aspect=fixed;fontSize=13;strokeColor=#000000;fillColor=#FFFFFF;" vertex="1" parent="1">
                    <mxGeometry x="790" y="136.26" width="20" height="20" as="geometry"/>
                </mxCell>
                <mxCell id="273" value="" style="ellipse;whiteSpace=wrap;html=1;aspect=fixed;fontSize=13;strokeColor=#000000;fillColor=#FFFFFF;" vertex="1" parent="1">
                    <mxGeometry x="790" y="162.26" width="20" height="20" as="geometry"/>
                </mxCell>
                <mxCell id="274" value="" style="ellipse;whiteSpace=wrap;html=1;aspect=fixed;fontSize=13;strokeColor=#000000;fillColor=#FFFFFF;" vertex="1" parent="1">
                    <mxGeometry x="790" y="190.26" width="20" height="20" as="geometry"/>
                </mxCell>
                <mxCell id="279" value="" style="ellipse;whiteSpace=wrap;html=1;aspect=fixed;fontSize=13;strokeColor=#000000;fillColor=#FFFFFF;" vertex="1" parent="1">
                    <mxGeometry x="790" y="270.26" width="20" height="20" as="geometry"/>
                </mxCell>
                <mxCell id="280" value="" style="ellipse;whiteSpace=wrap;html=1;aspect=fixed;fontSize=13;strokeColor=#000000;fillColor=#FFFFFF;" vertex="1" parent="1">
                    <mxGeometry x="790" y="242.26" width="20" height="20" as="geometry"/>
                </mxCell>
                <mxCell id="281" value="" style="ellipse;whiteSpace=wrap;html=1;aspect=fixed;fontSize=13;strokeColor=#000000;fillColor=#FFFFFF;" vertex="1" parent="1">
                    <mxGeometry x="790" y="216.26" width="20" height="20" as="geometry"/>
                </mxCell>
                <mxCell id="283" value="" style="rounded=0;whiteSpace=wrap;html=1;direction=south;fillColor=#f5f5f5;fontColor=#333333;strokeColor=#000000;" vertex="1" parent="1">
                    <mxGeometry x="845" y="101.57" width="30" height="234.37" as="geometry"/>
                </mxCell>
                <mxCell id="284" value="" style="ellipse;whiteSpace=wrap;html=1;aspect=fixed;fontSize=13;strokeColor=#000000;fillColor=#FFFFFF;" vertex="1" parent="1">
                    <mxGeometry x="850" y="106.57" width="20" height="20" as="geometry"/>
                </mxCell>
                <mxCell id="285" value="" style="ellipse;whiteSpace=wrap;html=1;aspect=fixed;fontSize=13;strokeColor=#000000;fillColor=#FFFFFF;" vertex="1" parent="1">
                    <mxGeometry x="850" y="132.57" width="20" height="20" as="geometry"/>
                </mxCell>
                <mxCell id="286" value="" style="ellipse;whiteSpace=wrap;html=1;aspect=fixed;fontSize=13;strokeColor=#000000;fillColor=#FFFFFF;" vertex="1" parent="1">
                    <mxGeometry x="850" y="160.57" width="20" height="20" as="geometry"/>
                </mxCell>
                <mxCell id="287" value="" style="ellipse;whiteSpace=wrap;html=1;aspect=fixed;fontSize=13;strokeColor=#000000;fillColor=#FFFFFF;" vertex="1" parent="1">
                    <mxGeometry x="850" y="240.57" width="20" height="20" as="geometry"/>
                </mxCell>
                <mxCell id="288" value="" style="ellipse;whiteSpace=wrap;html=1;aspect=fixed;fontSize=13;strokeColor=#000000;fillColor=#FFFFFF;" vertex="1" parent="1">
                    <mxGeometry x="850" y="212.57" width="20" height="20" as="geometry"/>
                </mxCell>
                <mxCell id="289" value="" style="ellipse;whiteSpace=wrap;html=1;aspect=fixed;fontSize=13;strokeColor=#000000;fillColor=#FFFFFF;" vertex="1" parent="1">
                    <mxGeometry x="850" y="186.57" width="20" height="20" as="geometry"/>
                </mxCell>
                <mxCell id="290" value="" style="ellipse;whiteSpace=wrap;html=1;aspect=fixed;fontSize=13;strokeColor=#000000;fillColor=#FFFFFF;" vertex="1" parent="1">
                    <mxGeometry x="850" y="264.69" width="20" height="20" as="geometry"/>
                </mxCell>
                <mxCell id="291" value="" style="ellipse;whiteSpace=wrap;html=1;aspect=fixed;fontSize=13;strokeColor=#000000;fillColor=#FFFFFF;" vertex="1" parent="1">
                    <mxGeometry x="850" y="289.69" width="20" height="20" as="geometry"/>
                </mxCell>
                <mxCell id="292" value="" style="ellipse;whiteSpace=wrap;html=1;aspect=fixed;fontSize=13;strokeColor=#000000;fillColor=#FFFFFF;" vertex="1" parent="1">
                    <mxGeometry x="850" y="313.44" width="20" height="20" as="geometry"/>
                </mxCell>
                <mxCell id="294" value="" style="rounded=0;whiteSpace=wrap;html=1;direction=south;fillColor=#f5f5f5;fontColor=#333333;strokeColor=#000000;" vertex="1" parent="1">
                    <mxGeometry x="905" y="144.13" width="30" height="135" as="geometry"/>
                </mxCell>
                <mxCell id="295" value="" style="ellipse;whiteSpace=wrap;html=1;aspect=fixed;fontSize=13;strokeColor=#000000;fillColor=#FFFFFF;" vertex="1" parent="1">
                    <mxGeometry x="910" y="149.13" width="20" height="20" as="geometry"/>
                </mxCell>
                <mxCell id="296" value="" style="ellipse;whiteSpace=wrap;html=1;aspect=fixed;fontSize=13;strokeColor=#000000;fillColor=#FFFFFF;" vertex="1" parent="1">
                    <mxGeometry x="910" y="175.13" width="20" height="20" as="geometry"/>
                </mxCell>
                <mxCell id="297" value="" style="ellipse;whiteSpace=wrap;html=1;aspect=fixed;fontSize=13;strokeColor=#000000;fillColor=#FFFFFF;" vertex="1" parent="1">
                    <mxGeometry x="910" y="203.13" width="20" height="20" as="geometry"/>
                </mxCell>
                <mxCell id="299" value="" style="ellipse;whiteSpace=wrap;html=1;aspect=fixed;fontSize=13;strokeColor=#000000;fillColor=#FFFFFF;" vertex="1" parent="1">
                    <mxGeometry x="910" y="255.13" width="20" height="20" as="geometry"/>
                </mxCell>
                <mxCell id="300" value="" style="ellipse;whiteSpace=wrap;html=1;aspect=fixed;fontSize=13;strokeColor=#000000;fillColor=#FFFFFF;" vertex="1" parent="1">
                    <mxGeometry x="910" y="229.13" width="20" height="20" as="geometry"/>
                </mxCell>
                <mxCell id="304" value="" style="rounded=0;whiteSpace=wrap;html=1;direction=south;fillColor=#f5f5f5;fontColor=#333333;strokeColor=#000000;" vertex="1" parent="1">
                    <mxGeometry x="965" y="184.13" width="30" height="55" as="geometry"/>
                </mxCell>
                <mxCell id="305" value="" style="ellipse;whiteSpace=wrap;html=1;aspect=fixed;fontSize=13;strokeColor=#000000;fillColor=#FFFFFF;" vertex="1" parent="1">
                    <mxGeometry x="970" y="189.13" width="20" height="20" as="geometry"/>
                </mxCell>
                <mxCell id="306" value="" style="ellipse;whiteSpace=wrap;html=1;aspect=fixed;fontSize=13;strokeColor=#000000;fillColor=#FFFFFF;" vertex="1" parent="1">
                    <mxGeometry x="970" y="215.13" width="20" height="20" as="geometry"/>
                </mxCell>
                <mxCell id="308" style="edgeStyle=none;html=1;entryX=0;entryY=0.5;entryDx=0;entryDy=0;startArrow=none;endArrow=open;endFill=0;strokeColor=#000000;exitX=1;exitY=0.5;exitDx=0;exitDy=0;" edge="1" parent="1" source="253" target="264">
                    <mxGeometry relative="1" as="geometry">
                        <mxPoint x="505" y="221.63" as="sourcePoint"/>
                        <mxPoint x="635" y="221.63" as="targetPoint"/>
                    </mxGeometry>
                </mxCell>
                <mxCell id="309" value="&lt;font style=&quot;font-size: 7px&quot;&gt;state:ℚ^{31}&lt;/font&gt;" style="edgeLabel;html=1;align=center;verticalAlign=middle;resizable=0;points=[];fontColor=#000000;labelBackgroundColor=#F0F0F0;labelBorderColor=none;" vertex="1" connectable="0" parent="308">
                    <mxGeometry x="0.32" y="-4" relative="1" as="geometry">
                        <mxPoint x="-3" y="-21" as="offset"/>
                    </mxGeometry>
                </mxCell>
                <mxCell id="310" value="&lt;font color=&quot;#000000&quot; style=&quot;font-size: 11px&quot;&gt;state&lt;br&gt;31&lt;br&gt;&lt;/font&gt;" style="text;html=1;resizable=0;autosize=1;align=center;verticalAlign=middle;points=[];fillColor=none;strokeColor=none;rounded=0;labelBackgroundColor=#F0F0F0;labelBorderColor=none;fontSize=7;" vertex="1" parent="1">
                    <mxGeometry x="720" y="340" width="40" height="30" as="geometry"/>
                </mxCell>
                <mxCell id="311" value="&lt;font color=&quot;#000000&quot; style=&quot;font-size: 11px&quot;&gt;&lt;span style=&quot;background-color: rgb(245 , 245 , 245)&quot;&gt;FC&lt;br&gt;300&lt;br&gt;ReLU&lt;/span&gt;&lt;br&gt;&lt;/font&gt;" style="text;html=1;resizable=0;autosize=1;align=center;verticalAlign=middle;points=[];fillColor=none;strokeColor=none;rounded=0;labelBackgroundColor=#F0F0F0;labelBorderColor=none;fontSize=7;" vertex="1" parent="1">
                    <mxGeometry x="780" y="340" width="40" height="40" as="geometry"/>
                </mxCell>
                <mxCell id="312" value="&lt;font color=&quot;#000000&quot; style=&quot;font-size: 11px&quot;&gt;FC&lt;br&gt;600&lt;br&gt;ReLU&lt;br&gt;&lt;/font&gt;" style="text;html=1;resizable=0;autosize=1;align=center;verticalAlign=middle;points=[];fillColor=none;strokeColor=none;rounded=0;labelBackgroundColor=#F0F0F0;labelBorderColor=none;fontSize=7;" vertex="1" parent="1">
                    <mxGeometry x="840" y="338.75" width="40" height="40" as="geometry"/>
                </mxCell>
                <mxCell id="313" value="&lt;font color=&quot;#000000&quot;&gt;&lt;font style=&quot;font-size: 11px&quot;&gt;Dropout&lt;/font&gt;&lt;br&gt;&lt;/font&gt;" style="text;html=1;resizable=0;autosize=1;align=center;verticalAlign=middle;points=[];fillColor=none;strokeColor=none;rounded=0;labelBackgroundColor=#F0F0F0;labelBorderColor=none;fontSize=7;" vertex="1" parent="1">
                    <mxGeometry x="895" y="340" width="50" height="20" as="geometry"/>
                </mxCell>
                <mxCell id="314" value="&lt;font color=&quot;#000000&quot; style=&quot;font-size: 11px&quot;&gt;action&lt;br&gt;5&lt;br&gt;Linear&lt;br&gt;&lt;/font&gt;" style="text;html=1;resizable=0;autosize=1;align=center;verticalAlign=middle;points=[];fillColor=none;strokeColor=none;rounded=0;labelBackgroundColor=#F0F0F0;labelBorderColor=none;fontSize=7;" vertex="1" parent="1">
                    <mxGeometry x="955" y="335.94" width="50" height="40" as="geometry"/>
                </mxCell>
                <mxCell id="317" value="&lt;b&gt;GreedyStrategy&lt;/b&gt;" style="rounded=0;whiteSpace=wrap;html=1;direction=south;fillColor=#f5f5f5;fontColor=#333333;strokeColor=#000000;spacing=2;spacingRight=0;spacingLeft=0;spacingTop=0;" vertex="1" parent="1">
                    <mxGeometry x="821.5" y="412.76" width="133.5" height="63.75" as="geometry"/>
                </mxCell>
                <mxCell id="320" value="" style="whiteSpace=wrap;html=1;aspect=fixed;fillColor=#FFFFFF;spacingRight=0;spacingLeft=0;strokeColor=#000000;" vertex="1" parent="1">
                    <mxGeometry x="945" y="437.14" width="15" height="15" as="geometry"/>
                </mxCell>
                <mxCell id="321" style="edgeStyle=orthogonalEdgeStyle;html=1;entryX=1;entryY=0.5;entryDx=0;entryDy=0;startArrow=none;endArrow=open;endFill=0;strokeColor=#000000;exitX=1.013;exitY=0.599;exitDx=0;exitDy=0;rounded=0;exitPerimeter=0;" edge="1" parent="1" target="320" source="323">
                    <mxGeometry relative="1" as="geometry">
                        <mxPoint x="1030" y="222.63" as="sourcePoint"/>
                        <mxPoint x="1025" y="230.13" as="targetPoint"/>
                        <Array as="points">
                            <mxPoint x="1050" y="223"/>
                            <mxPoint x="1050" y="445"/>
                        </Array>
                    </mxGeometry>
                </mxCell>
                <mxCell id="322" value="&lt;font style=&quot;font-size: 10px&quot;&gt;qvalues:ℚ^{5}&lt;/font&gt;" style="edgeLabel;html=1;align=center;verticalAlign=middle;resizable=0;points=[];fontColor=#000000;labelBackgroundColor=#F0F0F0;labelBorderColor=none;" vertex="1" connectable="0" parent="321">
                    <mxGeometry x="0.32" y="-4" relative="1" as="geometry">
                        <mxPoint x="19" y="-222" as="offset"/>
                    </mxGeometry>
                </mxCell>
                <mxCell id="323" value="" style="whiteSpace=wrap;html=1;aspect=fixed;fillColor=#FFFFFF;spacingRight=0;spacingLeft=0;strokeColor=#000000;" vertex="1" parent="1">
                    <mxGeometry x="1023" y="214.01" width="15" height="15" as="geometry"/>
                </mxCell>
                <mxCell id="326" style="edgeStyle=orthogonalEdgeStyle;html=1;startArrow=none;endArrow=open;endFill=0;strokeColor=#000000;exitX=0;exitY=0.5;exitDx=0;exitDy=0;rounded=0;entryX=0.991;entryY=0.418;entryDx=0;entryDy=0;entryPerimeter=0;" edge="1" parent="1" source="328" target="257">
                    <mxGeometry relative="1" as="geometry">
                        <mxPoint x="1040" y="232.63" as="sourcePoint"/>
                        <mxPoint x="640" y="460" as="targetPoint"/>
                        <Array as="points">
                            <mxPoint x="760" y="445"/>
                            <mxPoint x="760" y="460"/>
                        </Array>
                    </mxGeometry>
                </mxCell>
                <mxCell id="327" value="&lt;font style=&quot;font-size: 12px&quot;&gt;action:ℤ&lt;/font&gt;" style="edgeLabel;html=1;align=center;verticalAlign=middle;resizable=0;points=[];fontColor=#000000;labelBackgroundColor=#F0F0F0;labelBorderColor=none;" vertex="1" connectable="0" parent="326">
                    <mxGeometry x="0.32" y="-4" relative="1" as="geometry">
                        <mxPoint x="81" y="-25" as="offset"/>
                    </mxGeometry>
                </mxCell>
                <mxCell id="328" value="" style="whiteSpace=wrap;html=1;aspect=fixed;fillColor=#FFFFFF;spacingRight=0;spacingLeft=0;strokeColor=#000000;" vertex="1" parent="1">
                    <mxGeometry x="815" y="437.13" width="15" height="15" as="geometry"/>
                </mxCell>
                <mxCell id="329" value="&lt;font style=&quot;font-size: 11px&quot;&gt;values:ℚ^{5}&lt;/font&gt;" style="edgeLabel;html=1;align=center;verticalAlign=middle;resizable=0;points=[];fontColor=#000000;labelBackgroundColor=#F0F0F0;labelBorderColor=none;" vertex="1" connectable="0" parent="1">
                    <mxGeometry x="1100" y="222.5683322744599" as="geometry">
                        <mxPoint x="-100" y="212" as="offset"/>
                    </mxGeometry>
                </mxCell>
                <mxCell id="330" style="edgeStyle=none;html=1;entryX=0.5;entryY=1;entryDx=0;entryDy=0;startArrow=none;endArrow=blockThin;endFill=1;strokeColor=#000000;exitX=0.5;exitY=0;exitDx=0;exitDy=0;" edge="1" parent="1" source="259" target="271">
                    <mxGeometry relative="1" as="geometry">
                        <mxPoint x="650" y="224.13" as="sourcePoint"/>
                        <mxPoint x="685" y="224.13" as="targetPoint"/>
                    </mxGeometry>
                </mxCell>
                <mxCell id="333" style="edgeStyle=none;html=1;entryX=0.478;entryY=1.007;entryDx=0;entryDy=0;startArrow=none;endArrow=blockThin;endFill=1;strokeColor=#000000;exitX=0.5;exitY=0;exitDx=0;exitDy=0;entryPerimeter=0;" edge="1" parent="1" source="271" target="283">
                    <mxGeometry relative="1" as="geometry">
                        <mxPoint x="807.5" y="201.63" as="sourcePoint"/>
                        <mxPoint x="837.5" y="201.635" as="targetPoint"/>
                    </mxGeometry>
                </mxCell>
                <mxCell id="334" style="edgeStyle=none;html=1;startArrow=none;endArrow=blockThin;endFill=1;strokeColor=#000000;exitX=0.481;exitY=0.009;exitDx=0;exitDy=0;entryX=0.521;entryY=0.996;entryDx=0;entryDy=0;exitPerimeter=0;entryPerimeter=0;" edge="1" parent="1" source="283" target="294">
                    <mxGeometry relative="1" as="geometry">
                        <mxPoint x="865" y="203.13" as="sourcePoint"/>
                        <mxPoint x="895" y="203" as="targetPoint"/>
                    </mxGeometry>
                </mxCell>
                <mxCell id="335" style="edgeStyle=none;html=1;entryX=0.594;entryY=0.995;entryDx=0;entryDy=0;startArrow=none;endArrow=blockThin;endFill=1;strokeColor=#000000;exitX=0.535;exitY=-0.001;exitDx=0;exitDy=0;exitPerimeter=0;entryPerimeter=0;" edge="1" parent="1" source="294" target="304">
                    <mxGeometry relative="1" as="geometry">
                        <mxPoint x="925" y="211.49" as="sourcePoint"/>
                        <mxPoint x="955" y="211.495" as="targetPoint"/>
                    </mxGeometry>
                </mxCell>
                <mxCell id="336" value="/gazebo/step" style="edgeLabel;html=1;align=center;verticalAlign=middle;resizable=0;points=[];fontColor=#000000;labelBackgroundColor=#FFFFFF;" vertex="1" connectable="0" parent="1">
                    <mxGeometry x="569.8211012150366" y="435.00617969104746" as="geometry">
                        <mxPoint x="-250" y="10" as="offset"/>
                    </mxGeometry>
                </mxCell>
                <mxCell id="337" value="/gazebo/reset" style="edgeLabel;html=1;align=center;verticalAlign=middle;resizable=0;points=[];fontColor=#000000;labelBackgroundColor=#FFFFFF;" vertex="1" connectable="0" parent="1">
                    <mxGeometry x="590.0011012150366" y="437.12617969104747" as="geometry">
                        <mxPoint x="-272" y="-23" as="offset"/>
                    </mxGeometry>
                </mxCell>
            </root>
        </mxGraphModel>
    </diagram>
</mxfile>